<svg xmlns="http://www.w3.org/2000/svg" viewBox="0 0 64 64" role="img" aria-labelledby="title desc">
  <title id="title">Corvia Rehab</title>
  <desc id="desc">Corvia Rehab favicon with a rehabilitation motion mark</desc>
  <rect width="64" height="64" rx="14" fill="#ffffff"/>
  <circle cx="47" cy="15" r="5" fill="#0D47A1"/>
  <circle cx="17" cy="14" r="5" fill="#0D47A1"/>
  <path
    d="M14 48c8-20 20-31 38-38-11 8-19 17-24 28-3 6-7 10-14 10Z"
    fill="#78BE20"
  />
  <path
    d="M8 43c4-12 13-22 25-30-8 9-14 18-18 29-2 5-5 7-7 1Z"
    fill="#00A6A6"
  />
  <path
    d="M30 54c-7-8-5-19 6-34-4 13-3 23 5 30-4 3-8 5-11 4Z"
    fill="#0D47A1"
  />
  <path
    d="M15 54h34"
    fill="none"
    stroke="#00A6A6"
    stroke-linecap="round"
    stroke-width="3"
  />
</svg>
